<svg width="31" height="31" viewBox="0 0 31 31" fill="none" xmlns="http://www.w3.org/2000/svg">
<path d="M20.6667 28.4515V24.7444C20.7151 24.1285 20.6319 23.5094 20.4226 22.9281C20.2132 22.3468 19.8826 21.8168 19.4525 21.3732C23.5084 20.9211 27.7709 19.384 27.7709 12.3315C27.7705 10.5281 27.0768 8.79391 25.8334 7.48778C26.4222 5.91002 26.3805 4.16606 25.7171 2.6182C25.7171 2.6182 24.1929 2.16611 20.6667 4.52986C17.7062 3.72751 14.5855 3.72751 11.625 4.52986C8.09877 2.16611 6.5746 2.6182 6.5746 2.6182C5.91117 4.16606 5.86954 5.91002 6.45835 7.48778C5.2056 8.8036 4.51119 10.5535 4.52085 12.3703C4.52085 19.3711 8.78335 20.9082 12.8392 21.4119C12.4142 21.8511 12.0865 22.3748 11.8773 22.9489C11.6681 23.5231 11.5821 24.1349 11.625 24.7444V28.4515" stroke="#C0C0C0" stroke-width="1.5" stroke-linecap="round" stroke-linejoin="round"/>
<path d="M11.6249 25.8682C7.74992 27.125 4.52075 25.8682 2.58325 21.9932" stroke="#C0C0C0" stroke-width="1.5" stroke-linecap="round" stroke-linejoin="round"/>
</svg>
