<svg width="26" height="26" viewBox="0 0 26 26" fill="none" xmlns="http://www.w3.org/2000/svg">
<path d="M17.3334 23.8626V20.7534C17.374 20.2368 17.3042 19.7175 17.1286 19.23C16.9531 18.7425 16.6757 18.298 16.315 17.9259C19.7167 17.5467 23.2917 16.2576 23.2917 10.3426C23.2914 8.83006 22.7096 7.37555 21.6667 6.28008C22.1606 4.9568 22.1256 3.49413 21.5692 2.19592C21.5692 2.19592 20.2909 1.81675 17.3334 3.79925C14.8504 3.12631 12.233 3.12631 9.75004 3.79925C6.79254 1.81675 5.51421 2.19592 5.51421 2.19592C4.95778 3.49413 4.92287 4.9568 5.41671 6.28008C4.36601 7.38367 3.78361 8.85133 3.79171 10.3751C3.79171 16.2467 7.36671 17.5359 10.7684 17.9584C10.412 18.3267 10.1371 18.7659 9.96163 19.2475C9.78618 19.7291 9.71408 20.2422 9.75004 20.7534V23.8626" stroke="white" stroke-width="1.5" stroke-linecap="round" stroke-linejoin="round"/>
<path d="M9.75002 21.6959C6.50002 22.75 3.79169 21.6959 2.16669 18.4459" stroke="white" stroke-width="1.5" stroke-linecap="round" stroke-linejoin="round"/>
</svg>
