<svg width="31" height="31" viewBox="0 0 31 31" fill="none" xmlns="http://www.w3.org/2000/svg">
<path fill-rule="evenodd" clip-rule="evenodd" d="M12.179 11.585H16.9763V13.9746C17.6673 12.6002 19.4395 11.3654 22.1016 11.3654C27.205 11.3654 28.4166 14.1011 28.4166 19.1206V28.4167H23.2499V20.2637C23.2499 17.4052 22.5589 15.7932 20.7996 15.7932C18.3597 15.7932 17.3457 17.5305 17.3457 20.2624V28.4167H12.179V11.585V11.585ZM3.3195 28.1971H8.48617V11.3654H3.3195V28.1971V28.1971ZM9.22629 5.87709C9.22649 6.31016 9.1406 6.73894 8.97363 7.13852C8.80666 7.5381 8.56193 7.90051 8.25367 8.20468C7.62902 8.82548 6.78351 9.17298 5.90284 9.17084C5.02371 9.17025 4.18015 8.82364 3.55459 8.20597C3.24744 7.90076 3.00354 7.53795 2.83686 7.13832C2.67018 6.73869 2.584 6.31009 2.58325 5.87709C2.58325 5.00264 2.932 4.16564 3.55588 3.54822C4.1809 2.92971 5.02481 2.58296 5.90413 2.58334C6.78504 2.58334 7.62979 2.9308 8.25367 3.54822C8.87625 4.16564 9.22629 5.00264 9.22629 5.87709Z" fill="#C0C0C0"/>
</svg>
