<svg width="37" height="37" viewBox="0 0 37 37" fill="none" xmlns="http://www.w3.org/2000/svg">
<path d="M32.375 11.3359V25.6641C32.375 26 32.193 26.3095 31.8993 26.4727L18.9493 33.6671C18.6699 33.8223 18.3301 33.8223 18.0508 33.6671L5.1008 26.4727C4.80716 26.3095 4.62503 26 4.62503 25.6641L4.625 11.3359C4.625 11 4.80713 10.6905 5.10079 10.5273L18.0508 3.33289C18.3301 3.17769 18.6699 3.17769 18.9493 3.33289L31.8993 10.5273C32.1928 10.6905 32.375 11 32.375 11.3359Z" stroke="#C0C0C0" stroke-width="1.5" stroke-linecap="round" stroke-linejoin="round"/>
<path d="M5.4397 11.2443L18.0508 18.2504C18.3301 18.4057 18.6699 18.4057 18.9493 18.2504L31.6042 11.2199" stroke="#C0C0C0" stroke-width="1.5" stroke-linecap="round" stroke-linejoin="round"/>
<path d="M18.5 32.375V18.5" stroke="#C0C0C0" stroke-width="1.5" stroke-linecap="round" stroke-linejoin="round"/>
<path d="M18.0242 18.2356L5.99923 11.5551C5.38268 11.2126 4.625 11.6584 4.625 12.3637V25.6641C4.625 26 4.80712 26.3095 5.10077 26.4727L17.1258 33.1532C17.7423 33.4958 18.5 33.0499 18.5 32.3446V19.0442C18.5 18.7083 18.3179 18.3989 18.0242 18.2356Z" fill="#C0C0C0" stroke="#C0C0C0" stroke-width="1.5" stroke-linejoin="round"/>
</svg>
