<svg width="16" height="16" viewBox="0 0 16 16" fill="none" xmlns="http://www.w3.org/2000/svg">
<path d="M12.6667 7.33333V13.6C12.6667 13.7061 12.6245 13.8078 12.5495 13.8828C12.4745 13.9579 12.3728 14 12.2667 14H3.73333C3.62725 14 3.52551 13.9579 3.45049 13.8828C3.37548 13.8078 3.33333 13.7061 3.33333 13.6V7.33333M6.66667 11.3333V7.33333M9.33333 11.3333V7.33333M14 4.66667H10.6667M2 4.66667H5.33333M5.33333 4.66667V2.4C5.33333 2.29391 5.37548 2.19217 5.45049 2.11716C5.5255 2.04214 5.62725 2 5.73333 2H10.2667C10.3728 2 10.4745 2.04214 10.5495 2.11716C10.6245 2.19217 10.6667 2.29391 10.6667 2.4V4.66667M5.33333 4.66667H10.6667" stroke="currentColor" stroke-linecap="round" stroke-linejoin="round"/>
</svg>
