<svg width="14" height="14" viewBox="0 0 14 14" fill="none" xmlns="http://www.w3.org/2000/svg">
<path d="M13.7917 2.87992C13.3047 3.09575 12.7814 3.24159 12.2313 3.3075C12.7989 2.96788 13.2235 2.43336 13.426 1.80367C12.8927 2.12041 12.3091 2.34337 11.7005 2.46284C11.2912 2.02584 10.7491 1.73619 10.1583 1.63886C9.56758 1.54153 8.96121 1.64196 8.43338 1.92457C7.90554 2.20717 7.48577 2.65613 7.23924 3.20175C6.99271 3.74736 6.93322 4.35911 7.06999 4.942C5.98947 4.88775 4.93244 4.60691 3.96748 4.1177C3.00253 3.62849 2.15123 2.94185 1.46882 2.10234C1.23549 2.50484 1.10132 2.9715 1.10132 3.4685C1.10106 3.91592 1.21124 4.35648 1.42208 4.7511C1.63293 5.14571 1.93791 5.48219 2.30999 5.73067C1.87848 5.71694 1.4565 5.60034 1.07915 5.39058V5.42558C1.07911 6.0531 1.29617 6.66131 1.69351 7.147C2.09085 7.63269 2.64399 7.96596 3.25907 8.09025C2.85878 8.19859 2.4391 8.21454 2.03174 8.13692C2.20528 8.67686 2.54332 9.14902 2.99853 9.48729C3.45375 9.82557 4.00336 10.013 4.5704 10.0234C3.60781 10.7791 2.419 11.189 1.19524 11.1872C0.978459 11.1872 0.761864 11.1746 0.54657 11.1493C1.78876 11.9479 3.23477 12.3718 4.71157 12.3702C9.71074 12.3702 12.4437 8.22967 12.4437 4.63867C12.4437 4.522 12.4407 4.40417 12.4355 4.2875C12.9671 3.90307 13.4259 3.42702 13.7906 2.88167L13.7917 2.87992Z" fill="#65A1E8"/>
</svg>
