<svg width="31" height="31" viewBox="0 0 31 31" fill="none" xmlns="http://www.w3.org/2000/svg">
<path d="M30.5388 6.37696C29.4602 6.85487 28.3016 7.17779 27.0836 7.32375C28.3404 6.57173 29.2806 5.38814 29.7289 3.99383C28.5481 4.69519 27.2558 5.18887 25.9082 5.45341C25.0019 4.48578 23.8015 3.84442 22.4934 3.6289C21.1853 3.41338 19.8426 3.63577 18.6738 4.26153C17.5051 4.8873 16.5756 5.88142 16.0297 7.08957C15.4838 8.29772 15.3521 9.6523 15.6549 10.943C13.2623 10.8229 10.9218 10.201 8.78509 9.11775C6.64841 8.0345 4.76337 6.51408 3.25233 4.65516C2.73566 5.54641 2.43858 6.57975 2.43858 7.68025C2.438 8.67095 2.68197 9.64648 3.14884 10.5203C3.61571 11.3941 4.29104 12.1391 5.11491 12.6893C4.15944 12.6589 3.22504 12.4008 2.3895 11.9363V12.0138C2.3894 13.4033 2.87004 14.75 3.74986 15.8255C4.62968 16.901 5.85448 17.6389 7.21646 17.9141C6.33009 18.154 5.40081 18.1893 4.49879 18.0175C4.88306 19.213 5.63157 20.2585 6.63955 21.0076C7.64753 21.7566 8.86451 22.1717 10.1201 22.1947C7.98866 23.8679 5.35631 24.7756 2.64654 24.7716C2.16653 24.7717 1.68693 24.7437 1.21021 24.6876C3.96078 26.4561 7.16264 27.3947 10.4327 27.3911C21.5023 27.3911 27.5537 18.2228 27.5537 10.2713C27.5537 10.013 27.5473 9.75208 27.5357 9.49375C28.7127 8.64251 29.7288 7.5884 30.5362 6.38083L30.5388 6.37696V6.37696Z" fill="#C0C0C0"/>
</svg>
